HIERARCHY
ROOT Hips
{
    OFFSET 0.000000 0.000000 0.000000
    CHANNELS 6 Xposition Yposition Zposition Zrotation Xrotation Yrotation
    JOINT Spine
    {
        OFFSET -0.000000 8.104110 0.000000
        CHANNELS 3 Zrotation Xrotation Yrotation
        JOINT Spine1
        {
            OFFSET -0.000000 22.417536 0.000000
            CHANNELS 3 Zrotation Xrotation Yrotation
            JOINT Neck
            {
                OFFSET -0.000000 22.325472 2.029588
                CHANNELS 3 Zrotation Xrotation Yrotation
                JOINT Head
                {
                    OFFSET -0.000000 13.836284 -1.976612
                    CHANNELS 3 Zrotation Xrotation Yrotation
                    End Site
                    {
                        OFFSET -0.000000 24.707651 0.000000
                    }
                }
            }
            JOINT LeftShoulder
            {
                OFFSET 3.973640 20.379602 -0.279950
                CHANNELS 3 Zrotation Xrotation Yrotation
                JOINT LeftArm
                {
                    OFFSET 11.493720 0.000000 0.000000
                    CHANNELS 3 Zrotation Xrotation Yrotation
                    JOINT LeftForeArm
                    {
                        OFFSET 31.336695 0.000000 0.000000
                        CHANNELS 3 Zrotation Xrotation Yrotation
                        JOINT LeftHand
                        {
                            OFFSET 29.043781 0.000000 0.000000
                            CHANNELS 3 Zrotation Xrotation Yrotation
                            End Site
                            {
                                OFFSET 14.824592 0.000000 0.000000
                            }
                        }
                    }
                }
            }
            JOINT RightShoulder
            {
                OFFSET -3.921018 20.379602 -0.279950
                CHANNELS 3 Zrotation Xrotation Yrotation
                JOINT RightArm
                {
                    OFFSET -11.493720 0.000000 0.000000
                    CHANNELS 3 Zrotation Xrotation Yrotation
                    JOINT RightForeArm
                    {
                        OFFSET -31.336695 0.000000 0.000000
                        CHANNELS 3 Zrotation Xrotation Yrotation
                        JOINT RightHand
                        {
                            OFFSET -29.043781 0.000000 0.000000
                            CHANNELS 3 Zrotation Xrotation Yrotation
                            End Site
                            {
                                OFFSET -14.824592 0.000000 0.000000
                            }
                        }
                    }
                }
            }
        }
    }
    JOINT LeftUpLeg
    {
        OFFSET 9.883060 0.000000 0.000000
        CHANNELS 3 Zrotation Xrotation Yrotation
        JOINT LeftLeg
        {
            OFFSET -0.000000 -43.587502 0.000000
            CHANNELS 3 Zrotation Xrotation Yrotation
            JOINT LeftFoot
            {
                OFFSET -0.000000 -41.501083 0.000000
                CHANNELS 3 Zrotation Xrotation Yrotation
                JOINT LeftToeBase
                {
                    OFFSET -0.000000 -6.423989 14.824592
                    CHANNELS 3 Zrotation Xrotation Yrotation
                    End Site
                    {
                        OFFSET -0.000000 0.000000 3.953224
                    }
                }
            }
        }
    }
    JOINT RightUpLeg
    {
        OFFSET -9.883060 0.000000 0.000000
        CHANNELS 3 Zrotation Xrotation Yrotation
        JOINT RightLeg
        {
            OFFSET -0.000000 -43.587502 0.000000
            CHANNELS 3 Zrotation Xrotation Yrotation
            JOINT RightFoot
            {
                OFFSET -0.000000 -41.501083 0.000000
                CHANNELS 3 Zrotation Xrotation Yrotation
                JOINT RightToeBase
                {
                    OFFSET -0.000000 -6.423989 14.824592
                    CHANNELS 3 Zrotation Xrotation Yrotation
                    End Site
                    {
                        OFFSET -0.000000 0.000000 3.953224
                    }
                }
            }
        }
    }
}
MOTION
Frames:    4
Frame Time:    0.008333
9.028949    95.627090    -48.933132    -1.245571    1.648381    -177.265839    -0.743389    -10.169379    0.397163    0.332266    7.305374    0.442263    0.080775    12.699026    -0.917538    0.225949    11.816027    -0.949245    16.189983    1.812840    -2.254811    -13.880421    8.704172    -1.530682    0.824578    -6.504331    1.468542    0.007158    -6.515358    -8.451893    -14.078636    1.745078    -4.414785    12.035500    4.975404    2.008427    -0.707699    -4.092187    0.936037    7.209251    -3.419142    10.585149    -3.145894    7.939952    -7.061214    0.385263    -0.711740    -2.274756    -3.794984    -0.261403    12.274296    0.000000    0.000000    0.000000    0.208436    12.814087    5.307764    3.478013    -4.863560    3.814615    -3.384218    -1.193044    -19.799297    0.000000    0.000000    0.000000    
9.014644    95.639214    -48.916210    -1.294917    1.626685    -177.296005    -0.751532    -10.184925    0.420719    0.274863    7.259921    0.470332    0.129801    12.744603    -0.910738    0.156936    11.802958    -0.946536    16.197338    1.830456    -2.294741    -13.871791    8.671095    -1.518320    0.859664    -6.459105    1.485287    -0.094850    -6.463170    -8.512845    -14.077307    1.751700    -4.341422    12.066154    4.993966    1.921066    -0.737569    -4.128218    0.962608    7.181665    -3.457165    10.587840    -3.224115    7.894149    -7.161758    0.406674    -0.676098    -2.229279    -3.794470    -0.214503    12.374759    0.000000    0.000000    0.000000    0.119386    12.790294    5.293139    3.515534    -4.872137    3.850901    -3.353268    -1.186533    -19.781769    0.000000    0.000000    0.000000    
9.018461    95.641228    -48.900967    -1.302474    1.620934    -177.316467    -0.744174    -10.176706    0.431261    0.243290    7.208069    0.482191    0.154264    12.794959    -0.910729    0.108784    11.764480    -0.949110    16.199350    1.894547    -2.328227    -13.855561    8.636384    -1.504415    0.854433    -6.521760    1.473366    0.051623    -6.536482    -8.483958    -14.024668    1.719652    -4.334975    12.022015    4.958603    1.946390    -0.764724    -4.103383    0.931581    7.209379    -3.429629    10.589411    -3.225998    7.874388    -7.264784    0.392548    -0.667779    -2.231276    -3.785970    -0.206964    12.504078    0.000000    0.000000    0.000000    0.095747    12.800024    5.327657    3.524142    -4.925967    3.852246    -3.319815    -1.168569    -19.787657    0.000000    0.000000    0.000000    
9.021680    95.643600    -48.887577    -1.317672    1.614800    -177.339951    -0.747055    -10.184771    0.446347    0.225891    7.202946    0.498862    0.148925    12.787735    -0.906332    0.092645    11.735359    -0.944993    16.208628    1.857986    -2.335484    -13.856613    8.647758    -1.500398    0.872031    -6.518339    1.485419    0.044611    -6.532859    -8.495537    -13.982744    1.708179    -4.430301    11.946895    4.928617    2.073622    -0.739439    -4.085286    0.904880    7.136414    -3.419043    10.583494    -3.244045    7.864231    -7.331702    0.398446    -0.666530    -2.218493    -3.800658    -0.210916    12.579571    0.000000    0.000000    0.000000    0.066773    12.805578    5.354576    3.534443    -4.957160    3.875617    -3.306437    -1.170276    -19.818262    0.000000    0.000000    0.000000    
